<?xml version="1.0" standalone="no"?>
<!DOCTYPE svg PUBLIC "-//W3C//DTD SVG 20010904//EN"
 "http://www.w3.org/TR/2001/REC-SVG-20010904/DTD/svg10.dtd">
<svg version="1.0" xmlns="http://www.w3.org/2000/svg"
 width="6987.000000pt" height="1137.000000pt" viewBox="0 0 6987.000000 1137.000000"
 preserveAspectRatio="xMidYMid meet">

<g transform="translate(0.000000,1137.000000) scale(0.100000,-0.100000)"
fill="#000000" stroke="none">
<path d="M40760 10125 c-652 -34 -1236 -66 -1297 -70 l-113 -8 0 -198 c0 -183
1 -199 18 -199 9 0 56 -7 103 -16 73 -13 93 -21 124 -50 25 -23 60 -41 104
-53 36 -11 116 -34 176 -51 187 -53 247 -83 310 -152 68 -76 138 -214 165
-328 20 -84 20 -110 20 -3226 0 -3078 0 -3142 -19 -3217 -23 -89 -40 -123 -84
-174 -84 -95 -229 -151 -475 -182 -90 -12 -176 -21 -191 -21 -27 0 -29 -3 -35
-52 -3 -29 -6 -119 -6 -200 l0 -148 100 0 101 0 37 -39 c29 -30 49 -41 92 -50
40 -8 466 -11 1555 -9 1438 3 1502 4 1537 22 21 10 47 33 58 51 39 63 19 185
-36 222 -21 13 -24 23 -26 106 l-3 92 -105 18 c-240 41 -528 167 -559 246 -6
14 -18 55 -28 91 -16 61 -18 290 -23 3700 -5 3545 -5 3636 -24 3673 -10 21
-30 45 -42 54 -21 14 -24 23 -24 82 0 66 -1 68 -43 109 -42 42 -43 42 -112 41
-39 -1 -603 -30 -1255 -64z"/>
<path d="M44590 10125 c-652 -34 -1236 -66 -1297 -70 l-113 -8 0 -198 c0 -183
1 -199 18 -199 9 0 56 -7 103 -16 73 -13 93 -21 124 -50 25 -23 60 -41 104
-53 36 -11 116 -34 176 -51 187 -53 247 -83 310 -152 68 -76 138 -214 165
-328 20 -84 20 -110 20 -3226 0 -3078 0 -3142 -19 -3217 -23 -89 -40 -123 -84
-174 -84 -95 -229 -151 -475 -182 -90 -12 -176 -21 -191 -21 l-28 0 -6 -97
c-4 -54 -7 -144 -7 -200 l0 -103 100 0 101 0 37 -39 c29 -30 49 -41 92 -50 40
-8 466 -11 1555 -9 1438 3 1502 4 1537 22 52 25 78 71 78 135 0 63 -20 114
-54 136 -24 16 -25 23 -28 108 l-3 92 -105 18 c-180 30 -400 113 -508 190 -36
26 -45 41 -63 96 -11 36 -24 111 -29 166 -5 58 -9 1591 -10 3638 0 2628 -3
3550 -11 3584 -7 27 -25 58 -45 79 -31 31 -34 38 -34 97 0 61 -1 64 -43 105
-42 42 -43 42 -112 41 -39 -1 -603 -30 -1255 -64z"/>
<path d="M59467 10175 c-353 -67 -669 -314 -798 -624 -52 -125 -72 -244 -66
-396 10 -249 87 -430 263 -615 92 -96 176 -160 304 -230 52 -29 118 -66 147
-82 74 -41 196 -84 293 -102 106 -20 313 -21 417 -1 398 75 723 376 797 737
32 157 16 367 -39 515 -29 76 -170 315 -237 399 -142 181 -357 321 -585 381
-125 32 -372 41 -496 18z"/>
<path d="M4425 9694 c-641 -49 -1195 -197 -1715 -460 -391 -197 -684 -407
-980 -704 -569 -569 -957 -1321 -1104 -2140 -123 -685 -87 -1443 98 -2080 75
-259 154 -458 281 -710 311 -615 747 -1084 1350 -1452 568 -346 1081 -535
1695 -622 241 -34 417 -46 686 -46 659 0 1142 100 1652 341 599 283 1053 694
1438 1301 185 292 215 382 154 467 l-30 41 20 40 20 39 -237 142 c-130 78
-238 138 -240 132 -7 -20 -185 -293 -266 -408 -304 -427 -673 -772 -1037 -968
-471 -254 -1069 -337 -1629 -226 -475 95 -873 339 -1163 713 -112 144 -224
373 -322 656 -194 557 -270 1083 -269 1870 0 699 63 1233 204 1733 318 1125
979 1717 1918 1717 389 0 771 -110 1009 -289 449 -340 850 -1006 1157 -1921
l62 -185 81 -3 c72 -2 85 -6 107 -28 41 -41 92 -57 181 -58 95 0 148 22 179
75 17 28 21 56 23 159 6 240 -37 2323 -49 2365 -6 21 -27 55 -46 74 -34 34
-35 37 -41 133 l-5 98 -236 0 -237 0 -163 -145 c-90 -80 -168 -145 -173 -145
-4 0 -44 18 -88 40 -233 117 -639 265 -930 339 -161 41 -393 83 -565 102 -98
10 -691 20 -790 13z"/>
<path d="M17280 9689 c-1002 -80 -1918 -466 -2570 -1085 -447 -425 -800 -984
-1009 -1599 -263 -769 -300 -1713 -100 -2510 171 -678 563 -1344 1070 -1817
264 -246 451 -383 807 -592 450 -265 869 -426 1367 -525 772 -155 1727 -104
2436 129 772 254 1474 770 1923 1413 601 863 851 2077 660 3212 -81 486 -235
894 -510 1357 -157 264 -289 453 -428 613 -363 420 -742 711 -1246 960 -518
254 -1063 400 -1670 445 -157 12 -577 11 -730 -1z m767 -634 c303 -40 494
-120 676 -281 270 -239 471 -552 620 -965 148 -406 229 -825 284 -1459 22
-256 25 -1133 5 -1380 -31 -377 -76 -707 -133 -960 -107 -483 -298 -945 -506
-1225 -274 -370 -603 -581 -1021 -657 -165 -30 -476 -30 -642 0 -336 61 -598
204 -840 458 -128 136 -203 243 -285 409 -260 529 -400 1172 -446 2055 -13
244 -7 850 11 1075 48 626 141 1112 295 1540 64 180 217 487 313 630 302 449
707 707 1202 764 124 14 341 12 467 -4z"/>
<path d="M8470 9278 l0 -213 107 -17 c89 -15 111 -22 128 -42 33 -39 75 -55
266 -97 205 -44 326 -77 428 -115 119 -44 181 -124 222 -282 19 -73 19 -140
19 -2926 0 -3153 5 -2922 -66 -3057 -46 -87 -111 -145 -219 -198 -114 -56
-226 -76 -565 -102 -80 -6 -183 -14 -230 -17 l-85 -7 -3 -212 -2 -213 102 0
c102 0 103 0 119 -28 9 -16 33 -37 55 -48 38 -19 80 -19 2004 -19 1945 0 1965
0 2004 20 55 28 78 64 84 128 6 71 -11 119 -54 156 l-34 30 0 94 0 93 -122 11
c-264 26 -590 94 -713 148 -33 15 -87 46 -121 70 -58 42 -62 47 -83 118 -12
41 -26 126 -31 188 -13 155 -13 5376 0 5529 17 208 62 324 166 428 113 113
295 178 619 221 281 38 329 55 359 131 33 83 14 179 -43 221 -31 23 -31 23
-31 121 l0 98 -2140 0 -2140 0 0 -212z"/>
<path d="M23762 9278 l3 -212 107 -21 c91 -19 111 -26 137 -53 36 -36 83 -52
246 -87 281 -60 459 -122 520 -183 21 -20 49 -60 62 -89 56 -120 53 50 53
-3021 0 -3128 4 -2914 -62 -3050 -58 -117 -204 -217 -383 -262 -78 -20 -326
-56 -550 -80 -60 -7 -116 -14 -122 -16 -10 -3 -13 -54 -13 -214 l0 -210 100 0
101 0 37 -39 c28 -29 50 -41 90 -50 68 -14 3818 -15 4232 -1 989 35 1638 163
2171 430 452 227 738 549 873 981 66 210 80 321 81 604 0 221 -3 263 -23 362
-41 205 -84 314 -206 528 -100 177 -158 262 -250 372 -241 289 -586 514 -1041
678 -167 60 -471 145 -653 181 -80 16 -141 33 -139 39 8 23 94 59 317 131 129
42 291 98 358 125 726 290 1123 706 1207 1264 22 147 20 386 -5 531 -42 244
-85 346 -278 663 -283 463 -850 741 -1747 856 -389 50 -308 48 -2848 52
l-2377 4 2 -213z m4098 -403 c280 -43 468 -117 590 -232 235 -221 354 -523
367 -929 17 -502 -113 -880 -402 -1169 -148 -148 -309 -243 -540 -318 -207
-67 -399 -94 -727 -104 l-216 -6 -7 74 c-3 41 -5 621 -3 1289 3 1005 6 1221
17 1250 43 108 113 147 288 160 165 12 507 4 633 -15z m83 -3404 c299 -46 558
-136 707 -244 86 -63 221 -205 286 -303 183 -274 264 -578 264 -993 0 -190
-12 -324 -45 -487 -125 -619 -542 -1039 -1135 -1141 -132 -23 -413 -22 -540 1
-190 34 -383 118 -483 210 -76 70 -72 -8 -72 1466 0 1038 3 1314 13 1348 17
55 66 111 121 135 68 30 154 36 461 32 228 -2 313 -7 423 -24z"/>
<path d="M54370 7975 l0 -825 -500 0 -500 0 0 -295 0 -295 101 0 c100 0 100 0
126 -31 15 -17 38 -36 52 -42 17 -7 142 -13 353 -17 179 -3 330 -9 335 -13 4
-5 11 -801 14 -1770 6 -1880 3 -1766 49 -1973 75 -333 273 -642 520 -810 139
-94 382 -219 511 -262 239 -79 486 -107 858 -99 355 8 571 39 855 124 176 52
459 154 536 193 103 53 140 114 140 233 0 60 -4 80 -23 108 -12 19 -33 38 -45
44 -21 9 -22 16 -22 123 0 113 0 114 -23 109 -39 -10 -257 -36 -387 -46 -435
-35 -603 -20 -778 65 -145 71 -196 154 -246 406 -46 226 -47 308 -44 1898 l3
1495 21 46 c23 49 67 88 124 110 27 10 171 14 640 18 582 6 606 7 639 26 60
35 76 82 76 220 0 135 -16 185 -67 214 -28 16 -28 17 -28 119 l0 102 -704 0
c-633 0 -704 2 -710 16 -3 9 -6 294 -6 634 0 420 -4 636 -11 672 -9 40 -21 62
-50 90 l-39 37 0 101 0 100 -885 0 -885 0 0 -825z"/>
<path d="M50040 7320 c-817 -77 -1549 -449 -2010 -1022 -453 -562 -674 -1261
-631 -1993 53 -888 378 -1580 959 -2043 129 -103 203 -153 412 -277 266 -159
488 -256 762 -335 534 -153 1263 -183 1797 -74 416 86 910 320 1261 600 182
145 494 485 567 619 37 68 37 130 -1 179 l-28 37 22 36 c11 20 17 39 13 43
-18 15 -403 290 -407 290 -2 0 -26 -30 -52 -67 -279 -394 -678 -717 -1037
-838 -183 -61 -415 -91 -632 -81 -405 20 -705 109 -955 284 -85 60 -219 190
-280 272 -186 252 -340 844 -344 1320 -1 121 1 139 21 176 27 50 71 89 121
106 29 10 405 14 1722 18 1662 5 1685 5 1719 25 75 44 92 150 72 445 -19 277
-60 489 -141 724 -48 138 -102 249 -216 442 -111 188 -185 285 -329 430 -179
180 -347 299 -595 418 -289 139 -539 207 -920 252 -158 18 -723 27 -870 14z
m612 -569 c57 -18 74 -30 122 -83 55 -60 125 -182 165 -288 83 -215 130 -549
147 -1042 l7 -198 -314 -1 c-173 -1 -528 -4 -789 -8 -261 -3 -487 -4 -502 -2
l-28 3 0 92 c0 97 21 304 46 451 103 608 358 983 737 1085 100 28 311 23 409
-9z"/>
<path d="M66347 7305 c-365 -44 -714 -165 -959 -331 -122 -83 -225 -165 -446
-356 l-197 -170 -5 224 c-5 199 -8 228 -27 270 -12 25 -31 51 -42 57 -18 10
-21 21 -21 84 l0 73 -44 43 -44 43 -1219 -66 c-670 -37 -1253 -70 -1295 -73
l-78 -6 0 -198 c0 -110 4 -199 8 -199 5 0 51 -7 103 -16 79 -13 98 -20 120
-44 36 -39 67 -53 194 -89 179 -52 223 -77 294 -165 66 -84 122 -192 149 -289
16 -58 17 -185 17 -1767 0 -1620 -1 -1708 -18 -1769 -27 -94 -59 -150 -114
-202 -92 -86 -211 -125 -494 -161 l-176 -22 -7 -96 c-3 -52 -6 -141 -6 -197
l0 -103 100 0 101 0 37 -39 c29 -30 49 -41 92 -50 40 -8 453 -11 1500 -9 1422
3 1446 3 1484 23 53 27 78 63 84 123 5 59 -23 132 -62 157 -25 16 -26 22 -26
105 l0 88 -72 12 c-152 26 -334 90 -430 152 -43 27 -50 37 -68 95 -40 128 -41
197 -38 1683 l3 1435 23 56 c88 218 401 491 705 615 158 64 263 86 438 91 261
9 404 -33 492 -143 60 -74 139 -234 167 -339 55 -206 53 -145 57 -1705 4
-1461 2 -1541 -32 -1657 -33 -111 -119 -197 -233 -233 -35 -11 -141 -29 -235
-41 -95 -12 -173 -22 -175 -24 -1 -1 -5 -91 -9 -199 l-6 -196 102 0 102 0 37
-39 c28 -29 50 -41 90 -50 74 -15 2839 -16 2912 0 95 20 140 87 125 185 -5 37
-16 57 -46 87 l-39 39 0 88 0 87 -102 16 c-180 28 -386 97 -485 162 -45 30
-54 42 -68 87 -9 29 -20 82 -25 118 -6 39 -10 627 -10 1445 0 828 -4 1434 -10
1515 -20 268 -73 500 -159 701 -44 101 -191 362 -256 454 -262 369 -626 570
-1143 630 -154 18 -465 18 -615 0z"/>
<path d="M33260 7175 c-630 -34 -1193 -66 -1252 -70 l-108 -7 0 -198 0 -198
53 -7 c126 -15 157 -26 191 -62 29 -32 46 -39 181 -74 83 -22 175 -51 205 -67
97 -49 210 -206 247 -343 15 -59 17 -187 23 -1519 7 -1605 3 -1508 71 -1790
82 -334 214 -577 433 -795 117 -116 140 -133 356 -266 174 -107 364 -182 554
-218 286 -56 741 -51 1036 10 318 65 744 280 1006 505 50 44 123 107 162 141
40 34 85 69 102 78 l30 16 0 -250 0 -249 42 -36 c38 -33 47 -36 106 -36 57 0
66 -3 84 -25 26 -33 63 -52 118 -60 41 -5 2133 116 2240 131 115 15 170 68
170 162 0 59 -17 101 -54 130 -23 18 -25 26 -28 118 l-3 99 -105 7 c-298 21
-447 67 -573 178 -54 48 -69 74 -94 157 -17 54 -18 200 -23 2158 -5 1948 -6
2103 -22 2138 -9 20 -28 48 -43 61 -21 20 -26 35 -31 99 -6 71 -9 78 -45 113
l-37 37 -1154 -62 c-634 -34 -1228 -67 -1320 -73 l-168 -11 0 -199 c0 -182 1
-198 18 -198 9 0 55 -4 101 -10 76 -9 86 -12 117 -44 41 -43 66 -51 235 -75
190 -27 253 -50 307 -109 48 -53 103 -157 129 -247 17 -56 18 -165 21 -1598
l2 -1538 -32 -47 c-46 -68 -181 -204 -275 -278 -267 -210 -506 -296 -818 -298
-126 0 -162 3 -229 22 -116 33 -222 92 -298 166 -55 54 -70 76 -96 142 -38
100 -58 176 -79 306 -15 93 -17 292 -22 1963 -6 1778 -7 1862 -24 1897 -10 20
-30 44 -43 53 -21 14 -24 23 -24 84 0 60 -4 73 -30 109 l-30 42 -68 -1 c-37
-1 -582 -30 -1212 -64z"/>
<path d="M59345 7175 c-632 -34 -1201 -66 -1262 -70 l-113 -7 0 -197 0 -198
106 -20 c88 -18 112 -26 138 -51 43 -41 74 -55 206 -92 209 -59 263 -85 333
-159 64 -68 122 -166 154 -261 17 -52 18 -132 21 -1734 3 -1829 4 -1777 -53
-1905 -49 -108 -161 -192 -320 -240 -63 -19 -351 -61 -416 -61 -25 0 -26 -2
-33 -77 -3 -42 -6 -132 -6 -200 l0 -123 108 0 108 0 17 -29 c9 -16 34 -37 54
-47 37 -18 94 -19 1583 -19 1503 0 1546 1 1584 19 54 27 76 68 76 141 0 66
-21 112 -65 141 -24 15 -25 21 -25 104 l0 87 -75 12 c-244 40 -528 155 -581
237 -10 14 -26 55 -38 92 -21 67 -21 71 -26 2222 l-5 2155 -23 47 c-13 25 -34
54 -47 62 -23 15 -25 23 -25 84 0 67 -1 69 -43 110 -42 42 -43 42 -112 41 -39
-1 -587 -30 -1220 -64z"/>
</g>
</svg>
